<?xml version="1.0" encoding="UTF-8"?>
<svg xmlns="http://www.w3.org/2000/svg" xmlns:xlink="http://www.w3.org/1999/xlink" width="36px" height="35px" viewBox="0 0 35 35" version="1.1">
<g id="surface1">
<path style=" stroke:none;fill-rule:nonzero;fill:rgb(7.058824%,6.666667%,7.450981%);fill-opacity:1;" d="M 2.757812 7.859375 C 2.757812 5.117188 4.996094 2.882812 7.746094 2.882812 L 27.199219 2.882812 C 29.953125 2.882812 32.1875 5.117188 32.1875 7.859375 L 32.1875 27.273438 C 32.1875 30.015625 29.953125 32.25 27.199219 32.25 L 7.746094 32.25 C 4.996094 32.25 2.757812 30.015625 2.757812 27.273438 Z M 7.746094 35 L 27.199219 35 C 31.472656 35 34.949219 31.535156 34.949219 27.273438 L 34.949219 7.859375 C 34.949219 3.597656 31.472656 0.132812 27.199219 0.132812 L 7.746094 0.132812 C 3.476562 0.132812 0 3.597656 0 7.859375 L 0 27.273438 C 0 31.535156 3.476562 35 7.746094 35 Z M 7.746094 35 "/>
</g>
</svg>
